<svg xmlns="http://www.w3.org/2000/svg" width="1600" height="488.6" viewBox="0 0 1600 488.6">
  <defs>
    <style>
      .cls-1 {
        fill: #f15e42;
        fill-rule: evenodd;
      }
    </style>
  </defs>
  <path id="Funfacts_Bg" data-name="Funfacts Bg" class="cls-1" d="M-11.039,5171.84c59.985,32.94,135.56-3.92,212.938-36.99,174.15-74.44,108.5,6.89,205.72,2.71,133.373-5.74,220.984-37.7,295.045-33.39,147.229,8.57,100.378,132.19,351.886,65.87,184.63-48.68,208.53-12.18,330.24,15.34s226.47-31.58,226.47-31.58V4719.35c-10.37-12.18-41.04-32.49-140.76,12.63-125.64,56.84-286.16,35.54-368.5,25.02-86.47-11.05-164.256,41.71-247,16s-45.193-79.37-210.082-57.26-262.672,44.21-378.957,6.31-276.1,18.05-276.1,18.05S-11.039,5056.35-11.039,5171.84Z" transform="translate(0 -4704.09)"/>
</svg>
